<?xml version="1.0" encoding="UTF-8"?>
<svg id="Layer_2" data-name="Layer 2" xmlns="http://www.w3.org/2000/svg" viewBox="0 0 405.04 397.33">
  <defs>
    <style>
      .cls-1 {
        fill: #f8d36c;
      }

      .cls-2 {
        fill: #083833;
      }
    </style>
  </defs>
  <g id="Layer_1-2" data-name="Layer 1">
    <path class="cls-1" d="M200.64,397.33c-14.93,0-30.71-8-40.37-16.75-5.86,2.33-11.39,3.51-16.52,3.51-14.5,0-25.52-8.78-32.84-26.12-1.41.14-2.81.2-4.17.2-19.98,0-34.39-14.52-36.41-35.91-17.03-8.47-22.04-19.72-23.16-27.97-2.28-16.88,9.83-33.25,18-39.6,3.85-3,11.38-7.76,20.6-13.05-9.28,1.01-18.31,1.66-25.93,1.66-3.09,0-5.93-.11-8.42-.31-28.8-2.4-41.72-17.87-44.21-31.54-2.18-12,1.36-20.96,6.5-32.89-7.01-8.46-14.89-21.94-13.56-32.54,1.48-11.85,18.38-27.15,47.01-33.2,7.09-10.37,17.33-16.03,29.17-16.03,7.81,0,15.87,2.55,21.56,6.81.91.68,1.95,1.52,3.12,2.51-6.25-13.8-10.71-27.62-6.3-38.19,5.01-12.04,17.51-17.59,26.63-21.65,2.28-1.01,4.45-1.98,6.21-2.91,7.61-6.42,30.73-24.4,51.08-24.4.64,0,1.28.02,1.91.05,15.42.86,20.98,8.25,24.66,13.14,1.51,2,2.41,3.16,3.47,3.69,6.22,3.11,16.63,4.16,20.42,4.16,3.32,0,20.03,1.41,22.96,29.16,2.26,21.47-1.3,76.07-26.71,107.83l-12.25,15.32-1.95-19.52c-.12-1.19-.23-2.38-.34-3.57l-6.05-.57c.23,1.87.35,3.65.35,5.35v27.89l-9.1-14.57-2.13,17.04-3.93-4.37h-6.62c4.77,1.94,8.59,3.55,11.16,4.75l15,7-12.5,6.25h6.85l4.87-2.25-.26,2.25h7.89l-1.36.88,3.81,1.58-3.27-4.9,7.97,1.14-.74-.48,4.82-6.83c3.61-5.12,9.33-9.33,17.11-12.64l-7.36-2.3,10.44-9.39c.25-.22.5-.44.77-.66l-12.01,1.2,17.09-13.98,6.54-11.56c30.7-54.28,57.08-65.67,73.8-65.67,10.02,0,19.46,4.11,26.57,11.56,5.02,5.26,8.53,11.82,9.93,18.24,15.24,3.94,29.48,16.21,33.46,29.69,2.86,9.7.36,19.23-6.86,26.8,3.32,15.04,1.35,27.51-5.9,37.12-8.67,11.5-24.44,18.11-46.97,19.72,24.6,8.49,38.94,22.45,38.94,38.48,0,10.46-2.05,16.78-3.86,22.36-.87,2.69-1.7,5.23-2.29,8.21q-.96,4.8,1.42,10.62c1.06,2.59,2.51,6.14,4.28,11.14l1.19,3.37-1.72,3.14c-12.8,23.35-32.15,28.25-46.12,28.25-7.17,0-13.25-1.31-17.09-2.41-.32-.09-1.05-.25-2.37-.25-2.5,0-7.11.55-14.9,3.14-.77.26-3.11,1.03-6.45,1.03-14.91,0-30.77-13.78-47.31-41.06-1.11,28.64-7.31,49.18-18.53,61.27-7.58,8.17-17.5,12.49-28.68,12.49ZM207.52,225.74c.9-1.22,1.87-2.36,2.9-3.39l1.55-1.55-4.19,2.69-.26,2.25Z"/>
    <path class="cls-1" d="M209.44,225.49c-5.34,0-9.7-2.82-11.66-7.54-2.84-6.86.16-16.12,7.65-23.61l.17-.17c48.98-46.1,87.56-153.77,87.94-154.85l15.54,2.47c.68,26.56-20.5,74.41-29.64,93.75-14.33,30.33-34.73,66.33-47.98,78.38-8.56,7.78-15.77,11.57-22.03,11.57h0Z"/>
    <path class="cls-1" d="M313.09,78c-8.97,0-15-6.83-15-17,0-4.21,1.56-14,16-14s16,9.79,16,14c0,9.37-7.63,17-17,17Z"/>
    <path class="cls-1" d="M309.09,34c-8.82,0-16-7.63-16-17s7.18-17,16-17,16,7.63,16,17-7.18,17-16,17Z"/>
    <path class="cls-1" d="M270.59,87c-9.1,0-16.5-6.95-16.5-15.5s7.4-15.5,16.5-15.5,16.5,6.95,16.5,15.5-7.4,15.5-16.5,15.5Z"/>
    <path class="cls-1" d="M310.59,99c-8.55,0-15.5-6.95-15.5-15.5s6.95-15.5,15.5-15.5,15.5,6.95,15.5,15.5-6.95,15.5-15.5,15.5Z"/>
    <path class="cls-1" d="M280.09,68c-8.82,0-16-7.18-16-16s7.18-16,16-16,16,7.18,16,16-7.18,16-16,16Z"/>
    <path class="cls-1" d="M289.09,46c-9.37,0-17-6.73-17-15s7.63-15,17-15,17,6.73,17,15-7.63,15-17,15Z"/>
    <path class="cls-1" d="M318.09,55c-8.82,0-16-7.18-16-16s7.18-16,16-16,16,7.18,16,16-7.18,16-16,16Z"/>
    <g>
      <path class="cls-2" d="M219.09,172c24-30,27-83,25-102s-11-22-15-22-16-1-24-5-7-15-25-16-41,17-48,23c-9,5-25,9-30,21s8,35,10,40,20,30,26,39c-15-12-37-34-45-40s-29-11-41,10c-28,5-43,19-44,27s7,22,15,30c-6,14-10,22-8,33s13,23,37,25,75-7,87-11c-25,10-60,30-69,37s-33,39,8,56c0,20,13,38,38,32,8,24,22,34,46,22,16,19,87,53,77-81,35,74,57,67,60,66s15-5,22-3,37,9,54-22c-6-17-8-16-6-26s6-15,6-29-16-27-44-34-41-10-55-19c26,6,132,25,112-45,23-18-3-45-25-47,1-21-40-66-96,33,23-12,42-12,42-12,0,0-36,14-47,23,20-2,48-14,70-8-19,7-69,15-79,24,16,5,47-6,66,5-30-1-73,1-85,18,14,9,60,20,67,44-26-20-55-30-69-32,6,9,35,31,38,46-24-19-25-32-54-44-11,11-13,40-14,60-7-21-5-42-3-59-13,6-38,50-43,64-1-19,19-58,33-67-19,0-46,26-57,38,0-22,51-48,59-52-15-7-81-31-89-41,21,2,53,21,77,21-7-15-54-32-68-36,27-6,68,20,77,30,2-16-17-39-28-53,20,12,32,33,37,41,0-18-17-52-30-68,23,14,36,44,38,61,6-19,2-47-11-73,24,17,22,48,25,78Z"/>
      <path class="cls-2" d="M301.09,42s-39,110-90,158c-12,12-7,28,15,8s76-127,75-166Z"/>
      <path class="cls-2" d="M322.09,61c0,5-4,9-9,9s-7-4-7-9,3-6,8-6,8,1,8,6Z"/>
      <ellipse class="cls-2" cx="309.09" cy="17" rx="8" ry="9"/>
      <ellipse class="cls-2" cx="270.59" cy="71.5" rx="8.5" ry="7.5"/>
      <circle class="cls-2" cx="310.59" cy="83.5" r="7.5"/>
      <circle class="cls-2" cx="280.09" cy="52" r="8"/>
      <ellipse class="cls-2" cx="289.09" cy="31" rx="9" ry="7"/>
      <circle class="cls-2" cx="318.09" cy="39" r="8"/>
    </g>
  </g>
</svg>