<?xml version="1.0" encoding="UTF-8"?>
<svg id="Layer_2" data-name="Layer 2" xmlns="http://www.w3.org/2000/svg" viewBox="0 0 1253.27 381.33">
  <defs>
    <style>
      .cls-1 {
        fill: #083833;
      }
    </style>
  </defs>
  <g id="Layer_1-2" data-name="Layer 1">
    <g>
      <path class="cls-1" d="M414.67,238.29c-3.74-3.98-6.49-8.52-8.26-13.6-1.77-5.09-2.65-9.79-2.65-14.12s.23-6.76.7-7.3c.47-.54,1-1.01,1.59-1.4,1.03-.69,2.29-1.23,3.76-1.62,4.03,10.32,11.48,16.96,22.34,19.91,3.49.98,7.02,1.47,10.58,1.47s6.73-.31,9.51-.92c2.78-.61,5.2-1.58,7.26-2.91,4.47-2.95,6.71-7.4,6.71-13.34,0-4.52-1.79-9.56-5.38-15.12-1.52-2.46-3.17-4.9-4.94-7.34-1.77-2.43-3.42-4.9-4.94-7.41-3.59-5.75-5.38-10.68-5.38-14.78s.58-7.52,1.73-10.25c1.15-2.73,2.74-5.19,4.76-7.37,2.01-2.19,4.39-4.12,7.12-5.79,2.73-1.67,5.69-3.07,8.88-4.2,6.39-2.26,13.17-3.39,20.35-3.39,6.78,0,12.12.7,16,2.1,3.88,1.4,6.65,2.84,8.29,4.31s2.47,2.92,2.47,4.35-.22,2.62-.66,3.58c-.44.96-1.01,1.91-1.7,2.84-1.47,1.92-2.93,3.37-4.35,4.35-3.39-5.41-9.04-9.22-16.96-11.43-2.56-.69-5.25-1.03-8.07-1.03s-5.64.34-8.44,1.03c-2.8.69-5.26,1.67-7.37,2.95-4.77,2.75-7.15,6.34-7.15,10.76,0,2.41.85,4.82,2.54,7.23,1.7,2.41,3.81,4.92,6.34,7.52,2.53,2.61,5.27,5.33,8.22,8.18,2.95,2.85,5.68,5.9,8.19,9.14,5.95,7.57,8.92,15.03,8.92,22.38s-1.38,13.71-4.13,19.1c-2.75,5.38-6.46,9.87-11.13,13.46-9.34,7.32-21.11,10.99-35.32,10.99-11.99,0-21.8-4.1-29.42-12.31Z"/>
      <path class="cls-1" d="M519.58,243.6c-10.72,0-16.07-6.12-16.07-18.36,0-10.37,5.73-23.64,17.18-39.81,10.08-14.2,20.99-26.1,32.74-35.69,7.42-6.05,12.9-9.07,16.44-9.07,2.61,0,4.92,1.21,6.93,3.61,2.21,2.56,3.32,5.17,3.32,7.85s-.58,5.09-1.73,7.23c-1.15,2.14-2.7,4.29-4.64,6.45-1.94,2.16-4.23,4.3-6.86,6.41-2.63,2.11-5.42,4.1-8.37,5.97-6.1,3.93-12.07,6.88-17.92,8.85-2.12,4.67-4.2,9.86-6.27,15.56,9.93-8.95,21.5-15.19,34.73-18.73,4.23-1.13,7.79-1.7,10.69-1.7s4.64.5,5.23,1.51c.59,1.01.7,2.35.33,4.02-.37,1.67-1.07,3.56-2.1,5.68-1.03,2.11-2.09,4.3-3.17,6.56-2.71,5.85-4.05,10.03-4.05,12.53,0,5.16,1.64,7.74,4.94,7.74,3.64,0,7.69-1.65,12.17-4.94,3.98-3,7.47-6.73,10.47-11.21,2.21-.15,3.32.76,3.32,2.73,0,1.57-1.02,4.12-3.06,7.63-2.04,3.51-4.04,6.55-6.01,9.11-1.97,2.56-4.18,5.08-6.64,7.56-2.46,2.48-5.09,4.68-7.89,6.6-6.29,4.38-12.34,6.56-18.14,6.56s-9.92-1.49-12.35-4.46c-2.43-2.97-3.65-7.24-3.65-12.79,0-7.13,4.3-16.05,12.9-26.76,2.65-3.29,3.81-4.94,3.46-4.94-3.93,0-9.9,2.46-17.92,7.37-8.5,5.21-14.5,10.32-17.99,15.34-2.02,7.91-3.22,15.46-3.61,22.63,0,1.97-2.14,2.95-6.41,2.95ZM544.73,178.5c6.34-2.9,11.8-6.37,16.37-10.4,4.57-4.13,6.86-7.69,6.86-10.69,0-1.47-.28-2.84-.85-4.09-.57-1.25-1.3-1.88-2.21-1.88s-2.08.66-3.5,1.99-3.02,3.17-4.79,5.53c-3.74,4.92-7.69,11.43-11.87,19.54Z"/>
      <path class="cls-1" d="M637.7,231.8c-6.73,7.87-14.94,11.8-24.62,11.8-6.14,0-11.06-1.84-14.75-5.53-3.64-3.64-5.46-8.43-5.46-14.38,0-7.52,2.95-14.82,8.85-21.9,5.7-6.88,13.17-12.48,22.41-16.81,9.59-4.47,19.49-6.71,29.71-6.71,3.88,0,6.66.62,8.33,1.84,1.33-1.57,2.52-2.49,3.58-2.77,1.06-.27,1.88-.41,2.47-.41,1.87,0,3.86.27,5.97.81-.2.64-.62,1.73-1.25,3.28-.64,1.55-1.35,3.38-2.14,5.49-.79,2.11-1.62,4.42-2.51,6.93-3.2,8.95-4.79,15.64-4.79,20.09s1.4,6.67,4.2,6.67c3.64,0,7.69-1.65,12.16-4.94,3.98-3,7.47-6.73,10.47-11.21,2.21-.15,3.32.76,3.32,2.73,0,1.67-1.02,4.23-3.06,7.67-2.04,3.44-4.02,6.41-5.94,8.92-1.92,2.51-4.05,4.97-6.41,7.37-2.36,2.41-4.87,4.57-7.52,6.49-5.95,4.23-11.75,6.34-17.4,6.34-7.18,0-11.99-2.16-14.45-6.49-.79-1.33-1.18-2.49-1.18-3.5v-1.81ZM616.61,211.67c0,5.7,2.38,8.55,7.15,8.55,5.26,0,11.45-4.25,18.58-12.76,3.78-4.52,7.09-8.85,9.92-12.98,2.83-4.13,4.98-7.27,6.45-9.44-12.29.1-22.49,2.9-30.6,8.41-7.67,5.21-11.5,11.28-11.5,18.21Z"/>
      <path class="cls-1" d="M704.79,240.8c0,1.97-1.65,2.95-4.94,2.95-8.16,0-13.96-3.24-17.4-9.73-1.28-2.31-1.92-5.06-1.92-8.26s.47-6.38,1.4-9.55c.93-3.17,2.19-6.3,3.76-9.4,1.57-3.1,3.39-6.09,5.46-9,2.06-2.9,4.25-5.58,6.56-8.04,4.87-5.21,9.49-8.87,13.86-10.99,1.18-.54,2.25-.81,3.21-.81s1.76.03,2.4.07c1.62.15,2.83.76,3.61,1.84-3,6.34-5.46,12.14-7.37,17.4,8.75-8.6,18.92-14.48,30.52-17.62,3.79-1.03,7.09-1.55,9.92-1.55s4.46.53,4.9,1.58c.44,1.06.66,2.03.66,2.91s-.12,2.08-.37,3.58c-.25,1.5-.88,3.58-1.92,6.23-1.03,2.65-2.09,5.33-3.17,8.04-2.75,6.88-4.13,11.58-4.13,14.08,0,4.33,1.55,6.49,4.65,6.49,5.31,0,11.16-3.49,17.55-10.47,1.87-2.01,3.56-4.18,5.09-6.49,2.21-.15,3.32.76,3.32,2.73,0,1.57-1.01,4.17-3.02,7.78-2.02,3.61-3.95,6.73-5.79,9.36-1.84,2.63-3.92,5.2-6.23,7.71-2.31,2.51-4.84,4.77-7.6,6.78-6,4.38-11.85,6.56-17.55,6.56s-10.03-1.5-12.98-4.5c-2.95-3-4.42-7.37-4.42-13.12,0-8.5,4.42-18.68,13.27-30.52,2.7-3.59,3.88-5.38,3.54-5.38-3.74,0-9,2.36-15.78,7.08-6.73,4.72-11.87,9.73-15.41,15.04-2.26,9.19-3.49,18.26-3.69,27.21Z"/>
      <path class="cls-1" d="M835.59,179.75c2.11-2.41,4.55-3.61,7.3-3.61,1.62,0,3,.47,4.13,1.4-4.87,7.77-9.88,19.32-15.04,34.65-1.43,4.23-2.85,8.46-4.28,12.68,8.55-1.18,16.81-5.65,24.77-13.42,2.36-2.36,4.37-4.82,6.04-7.37,2.21-.15,3.32.76,3.32,2.73,0,.79-.59,2.58-1.77,5.38s-3.18,6.02-6.01,9.66-5.98,6.86-9.47,9.66c-6.88,5.46-14.6,9.12-23.15,10.99-4.62,11.89-9.66,20.87-15.12,26.91-6.63,7.37-14.57,11.06-23.81,11.06-6.59,0-12.36-1.89-17.33-5.68-5.31-4.08-7.96-9.07-7.96-14.97,0-2.46,1.18-4.92,3.54-7.37,2.41-2.51,4.94-4.05,7.59-4.64,2.11,2.7,6.51,4.91,13.2,6.64,1.72.44,3.38.66,4.98.66s3.34-.58,5.24-1.73c1.89-1.16,3.77-2.74,5.64-4.76,3.44-3.79,7.08-9.14,10.91-16.07-7.08,7.37-14.89,11.06-23.45,11.06-5.21,0-9.51-1.84-12.9-5.53-3.44-3.74-5.16-8.53-5.16-14.38,0-7.52,2.95-14.82,8.85-21.9,5.7-6.88,13.17-12.48,22.41-16.81,9.59-4.47,19.49-6.71,29.71-6.71,3.49,0,6.09.49,7.81,1.47ZM790.54,211.67c0,5.7,2.38,8.55,7.15,8.55,6.78,0,15.7-7.79,26.76-23.37,1.67-2.31,3.24-4.55,4.72-6.71.59-1.08,1.52-2.78,2.8-5.09-12.24.29-22.27,3.15-30.08,8.55-7.57,5.16-11.35,11.18-11.35,18.06Z"/>
      <path class="cls-1" d="M884.47,199.36c-5.9-.29-10.91-.91-15.04-1.84-5.06,8.8-10.03,16.64-14.89,23.52-.64,1.03-2.09,1.3-4.35.81-4.03-.88-6.34-1.92-6.93-3.1,8.75-6.14,14.89-14.03,18.43-23.67-5.16-2.36-7.74-5.7-7.74-10.03,0-2.65,1.74-6.05,5.23-10.17,3.29-4.03,5.73-6.05,7.3-6.05,4.82,0,8.48,1.23,10.99,3.69.98.93,1.47,2.17,1.47,3.72s-.84,4.14-2.51,7.78c7.57,3.69,17.11,5.85,28.61,6.49-.35,3.39-1.77,6.15-4.28,8.26-.69.64-1.38.96-2.06.96-3.49,3.15-5.95,6.56-7.37,10.25-.44,1.18-.66,2.31-.66,3.39,0,4.57,2.73,6.86,8.19,6.86,3.69,0,7.77-1.65,12.24-4.94,3.98-3,7.47-6.73,10.47-11.21,2.21-.15,3.32.76,3.32,2.73,0,1.67-1.02,4.23-3.06,7.67-2.04,3.44-4.02,6.41-5.94,8.92-1.92,2.51-4.05,4.97-6.41,7.37-2.36,2.41-4.87,4.57-7.52,6.49-5.95,4.23-11.77,6.34-17.47,6.34-9.68,0-16.17-3-19.46-9-1.13-2.01-1.7-4.36-1.7-7.04s.55-5.32,1.66-7.93c1.11-2.61,2.62-5.14,4.53-7.59,3.93-5.11,8.92-9.34,14.97-12.68Z"/>
      <path class="cls-1" d="M913.23,235.05c-1.03-2.21-1.55-4.93-1.55-8.15s.7-6.62,2.1-10.21c1.4-3.59,3.2-7.16,5.38-10.73,2.19-3.56,4.63-7,7.34-10.32,2.7-3.32,5.38-6.25,8.04-8.81,5.85-5.55,10.15-8.33,12.9-8.33,1.18,0,2.49.5,3.95,1.51,1.45,1.01,2.37,1.76,2.77,2.25-7.42,7.96-12.12,15.66-14.08,23.08-.64,2.26-.96,4.46-.96,6.6s.81,4.05,2.43,5.75c1.62,1.7,3.64,2.54,6.05,2.54s4.66-.45,6.75-1.36c2.09-.91,4.14-2.1,6.16-3.58,3.98-3,7.47-6.73,10.47-11.21,2.21-.15,3.32.76,3.32,2.73,0,1.62-1.02,4.18-3.06,7.67-2.04,3.49-4.07,6.5-6.08,9.03-2.02,2.53-4.31,5.03-6.89,7.48-2.58,2.46-5.4,4.64-8.44,6.56-6.83,4.33-13.86,6.49-21.09,6.49-7.62,0-12.78-3-15.48-9ZM970,162.24c-2.02,1.01-4.19,1.77-6.53,2.29-2.34.52-4.36.77-6.08.77s-3.27-.21-4.65-.63c-1.38-.42-2.61-1.02-3.69-1.81-2.36-1.72-3.54-3.78-3.54-6.19s.43-4.45,1.29-6.12c.86-1.67,2.1-3.1,3.72-4.28,3.49-2.56,7.68-3.83,12.57-3.83s8.45,1.01,10.69,3.02c2.24,2.02,3.36,4.33,3.36,6.93s-.69,4.65-2.06,6.12c-1.38,1.47-3.07,2.72-5.09,3.72Z"/>
      <path class="cls-1" d="M986.96,195.08c7.81,1.33,14.87,1.99,21.16,1.99,10.91,0,18.08-.27,21.49-.81,3.42-.54,5.31-.64,5.68-.29.37.34.55,1.03.55,2.06s-.63,2.2-1.88,3.5c-1.25,1.3-2.92,2.52-5.01,3.65s-4.47,2.15-7.15,3.06c-2.68.91-5.45,1.68-8.29,2.32-5.9,1.33-10.94,1.99-15.12,1.99-6.98,0-11.26-2.19-12.83-6.56-.39-1.13-.59-2.19-.59-3.17,0-2.9.66-5.48,1.99-7.74Z"/>
      <path class="cls-1" d="M1057.08,240.72c-4.92,1.23-8.34,1.84-10.29,1.84s-3.53-.31-4.76-.92c-1.23-.61-2.33-1.44-3.32-2.47-2.16-2.26-3.24-4.53-3.24-6.82s.47-4.24,1.4-5.86,2.16-3.05,3.69-4.28c3.39-2.65,6.66-3.98,9.81-3.98s5.8.15,7.96.44c6.24-4.28,12.61-11.84,19.1-22.71,2.8-4.77,5.55-9.77,8.26-15,2.7-5.24,5.47-10.4,8.29-15.48,2.83-5.09,5.76-9.93,8.81-14.53,3.05-4.6,6.34-8.66,9.88-12.2,7.72-7.62,16.17-11.43,25.36-11.43,7.27,0,12.83,2.09,16.66,6.27,3.39,3.74,5.09,8.63,5.09,14.67,0,9.58-3.71,18.56-11.13,26.91-4.57,5.06-9.39,8.63-14.45,10.69-2.61,1.03-5.01,1.55-7.23,1.55s-4.03-.54-5.46-1.62c-3.2-2.51-4.79-5.97-4.79-10.4,0-1.33.22-2.51.66-3.54,1.13.15,2.35.22,3.65.22s2.96-.2,4.98-.59c2.01-.39,4.21-1.15,6.6-2.29,2.38-1.13,4.61-2.53,6.67-4.2,2.06-1.67,3.86-3.51,5.38-5.53,3.24-4.28,4.87-8.55,4.87-12.83,0-5.06-1.97-8.58-5.9-10.54-1.33-.69-3.29-1.03-5.9-1.03s-5.31.81-8.11,2.43c-2.8,1.62-5.37,3.82-7.71,6.6-2.33,2.78-4.47,6.03-6.41,9.77-1.94,3.74-3.76,7.7-5.46,11.91-1.7,4.2-3.32,8.54-4.87,13.01-1.55,4.47-3.07,8.85-4.57,13.12-1.5,4.28-3.02,8.33-4.57,12.17s-3.18,7.23-4.9,10.17c-3.83,6.49-7.99,10-12.46,10.54,13.62,4.52,26.22,7.59,37.82,9.22,2.46.34,4.6.52,6.41.52s3.59-.17,5.31-.52c1.72-.34,3.32-.88,4.79-1.62,3.34-1.62,5.65-3.81,6.93-6.56,3.44.25,5.16,1.58,5.16,4.02s-.37,4.89-1.11,7.37c-.74,2.48-1.76,4.86-3.06,7.12-1.3,2.26-2.85,4.38-4.64,6.34-1.79,1.97-3.77,3.66-5.94,5.09-4.52,3.05-9.11,4.57-13.75,4.57s-8.8-.44-12.46-1.33c-3.66-.88-7.1-2-10.32-3.36-3.22-1.35-6.3-2.84-9.25-4.46s-5.88-3.17-8.77-4.65c-6.93-3.39-13.17-5.33-18.73-5.82Z"/>
      <path class="cls-1" d="M1197.31,231.8c-6.73,7.87-14.94,11.8-24.63,11.8-6.14,0-11.06-1.84-14.75-5.53-3.64-3.64-5.46-8.43-5.46-14.38,0-7.52,2.95-14.82,8.85-21.9,5.7-6.88,13.17-12.48,22.41-16.81,9.58-4.47,19.49-6.71,29.71-6.71,3.88,0,6.66.62,8.33,1.84,1.33-1.57,2.52-2.49,3.58-2.77,1.06-.27,1.88-.41,2.47-.41,1.87,0,3.86.27,5.97.81-.2.64-.62,1.73-1.25,3.28-.64,1.55-1.35,3.38-2.14,5.49-.79,2.11-1.62,4.42-2.51,6.93-3.2,8.95-4.79,15.64-4.79,20.09s1.4,6.67,4.2,6.67c3.64,0,7.69-1.65,12.17-4.94,3.98-3,7.47-6.73,10.47-11.21,2.21-.15,3.32.76,3.32,2.73,0,1.67-1.02,4.23-3.06,7.67s-4.02,6.41-5.94,8.92c-1.92,2.51-4.05,4.97-6.41,7.37-2.36,2.41-4.87,4.57-7.52,6.49-5.95,4.23-11.75,6.34-17.4,6.34-7.18,0-11.99-2.16-14.45-6.49-.79-1.33-1.18-2.49-1.18-3.5v-1.81ZM1176.23,211.67c0,5.7,2.38,8.55,7.15,8.55,5.26,0,11.45-4.25,18.58-12.76,3.79-4.52,7.09-8.85,9.92-12.98s4.98-7.27,6.45-9.44c-12.29.1-22.49,2.9-30.6,8.41-7.67,5.21-11.5,11.28-11.5,18.21Z"/>
    </g>
    <path class="cls-1" d="M211.08,164c24-30,27-83,25-102s-11-22-15-22-16-1-24-5-7-15-25-16-41,17-48,23c-9,5-25,9-30,21s8,35,10,40,20,30,26,39c-15-12-37-34-45-40s-29-11-41,10C16.08,117,1.08,131,.08,139s7,22,15,30c-6,14-10,22-8,33s13,23,37,25,75-7,87-11c-25,10-60,30-69,37s-33,39,8,56c0,20,13,38,38,32,8,24,22,34,46,22,16,19,87,53,77-81,35,74,57,67,60,66s15-5,22-3,37,9,54-22c-6-17-8-16-6-26s6-15,6-29-16-27-44-34-41-10-55-19c26,6,132,25,112-45,23-18-3-45-25-47,1-21-40-66-96,33,23-12,42-12,42-12,0,0-36,14-47,23,20-2,48-14,70-8-19,7-69,15-79,24,16,5,47-6,66,5-30-1-73,1-85,18,14,9,60,20,67,44-26-20-55-30-69-32,6,9,35,31,38,46-24-19-25-32-54-44-11,11-13,40-14,60-7-21-5-42-3-59-13,6-38,50-43,64-1-19,19-58,33-67-19,0-46,26-57,38,0-22,51-48,59-52-15-7-81-31-89-41,21,2,53,21,77,21-7-15-54-32-68-36,27-6,68,20,77,30,2-16-17-39-28-53,20,12,32,33,37,41,0-18-17-52-30-68,23,14,36,44,38,61,6-19,2-47-11-73,24,17,22,48,25,78Z"/>
    <path class="cls-1" d="M293.08,34s-39,110-90,158c-12,12-7,28,15,8s76-127,75-166Z"/>
    <path class="cls-1" d="M314.08,53c0,5-4,9-9,9s-7-4-7-9,3-6,8-6,8,1,8,6Z"/>
    <ellipse class="cls-1" cx="301.08" cy="9" rx="8" ry="9"/>
    <ellipse class="cls-1" cx="262.58" cy="63.5" rx="8.5" ry="7.5"/>
    <circle class="cls-1" cx="302.58" cy="75.5" r="7.5"/>
    <circle class="cls-1" cx="272.08" cy="44" r="8"/>
    <ellipse class="cls-1" cx="281.08" cy="23" rx="9" ry="7"/>
    <circle class="cls-1" cx="310.08" cy="31" r="8"/>
    <path class="cls-1" d="M435.91,272.84c91.69-15.04,185.06-20.36,277.87-15.77,84.32,4.11,167.76,18.7,252.16,21.03,12.14.37,25.75.66,37.9.63,80.13.61,160.65-7.54,239.41-20.32-82.44,16.18-167.72,23.78-252.07,23.71-92.94.45-185.01-15.05-277.69-18.94-58.88-2.67-117.9-2.13-176.74,1.33-33.66,1.97-67.25,5.07-100.75,8.93-.16.02-.31-.1-.33-.26-.02-.16.09-.3.25-.33h0Z"/>
  </g>
</svg>